<svg width="227" height="218" viewBox="0 0 227 218" fill="none" xmlns="http://www.w3.org/2000/svg">
<path d="M5.04999 175.75C6.28333 179.417 7.68333 183.45 9.24999 187.85C10.8167 192.217 12.25 196 13.55 199.2C14.5167 196.1 15.85 192.383 17.55 188.05C19.25 183.683 20.8333 179.75 22.3 176.25C22.7333 175.217 23.4667 174.7 24.5 174.7C25.4667 174.7 26.2 174.9 26.7 175.3C27.2 175.667 27.45 176.317 27.45 177.25C27.45 177.617 27.4 177.933 27.3 178.2C27.2 178.467 27.05 178.817 26.85 179.25C25.8167 181.283 24.7833 183.633 23.75 186.3C22.7167 188.933 21.45 192.283 19.95 196.35C20.0167 196.183 19.55 197.433 18.55 200.1L16.9 204.4C16.7 204.933 16.3667 205.35 15.9 205.65C15.4667 205.917 14.9667 206.05 14.4 206.05C13.8333 206.05 13.2 205.917 12.5 205.65C11.8333 205.35 11.35 205.05 11.05 204.75C9.91666 202.583 8.46666 199.45 6.69999 195.35C4.96666 191.25 3.46666 187.467 2.19999 184L1.44999 181.95C0.949994 180.55 0.583327 179.483 0.349994 178.75C0.116661 177.983 -6.0685e-06 177.367 -6.0685e-06 176.9C-6.0685e-06 176.233 0.366661 175.7 1.09999 175.3C1.86666 174.9 2.59999 174.7 3.29999 174.7C3.66666 174.7 4.01666 174.783 4.34999 174.95C4.68333 175.117 4.91666 175.383 5.04999 175.75ZM28.2926 195.4C28.2926 194.133 28.5259 192.867 28.9926 191.6C29.4592 190.3 30.0759 189.117 30.8426 188.05C31.6092 186.983 32.8259 186.117 34.4926 185.45C36.1592 184.75 37.6426 184.4 38.9426 184.4C40.2759 184.4 41.6259 184.583 42.9926 184.95C44.3926 185.317 45.3592 185.883 45.8926 186.65C47.1259 188.383 47.7426 190.083 47.7426 191.75C47.7426 192.65 47.5426 193.417 47.1426 194.05C46.7759 194.683 46.2426 195.367 45.5426 196.1C44.9759 196.7 44.0759 197.1 42.8426 197.3C41.6426 197.5 40.4426 197.6 39.2426 197.6C38.4759 197.6 37.5426 197.533 36.4426 197.4C35.3426 197.233 34.2759 197.033 33.2426 196.8C33.3092 197.467 33.4759 198.117 33.7426 198.75C34.0092 199.383 34.3259 199.867 34.6926 200.2C35.3592 200.833 36.0426 201.233 36.7426 201.4C37.4759 201.567 38.4092 201.65 39.5426 201.65C40.7426 201.65 41.8592 201.45 42.8926 201.05C43.7259 200.75 44.4092 200.6 44.9426 200.6C45.5759 200.6 46.0592 200.8 46.3926 201.2C46.7259 201.567 46.8926 202.05 46.8926 202.65C46.8926 203.483 46.4092 204.167 45.4426 204.7C44.4759 205.233 43.3592 205.633 42.0926 205.9C40.8592 206.133 39.8592 206.25 39.0926 206.25C37.5259 206.25 36.0092 205.967 34.5426 205.4C33.0759 204.833 31.8592 204.033 30.8926 203C30.0926 202.067 29.4592 200.95 28.9926 199.65C28.5259 198.317 28.2926 196.9 28.2926 195.4ZM39.1926 188.65C38.4592 188.65 37.7259 188.8 36.9926 189.1C36.2592 189.367 35.6592 189.75 35.1926 190.25C34.5926 190.883 34.1759 191.4 33.9426 191.8C33.7426 192.167 33.6092 192.683 33.5426 193.35C34.3759 193.617 36.1092 193.75 38.7426 193.75C40.1759 193.75 41.2759 193.533 42.0426 193.1C42.8426 192.667 43.2426 192.1 43.2426 191.4C43.2426 190.7 42.8092 190.067 41.9426 189.5C41.0759 188.933 40.1592 188.65 39.1926 188.65ZM58.1207 198.25C58.1207 199.517 58.304 200.5 58.6707 201.2C59.0707 201.867 59.5707 202.2 60.1707 202.2C60.504 202.2 60.8207 202.183 61.1207 202.15C61.4207 202.083 61.7207 202.05 62.0207 202.05C62.354 202.05 62.6374 202.217 62.8707 202.55C63.1374 202.883 63.2707 203.25 63.2707 203.65C63.2707 204.45 62.8874 205.083 62.1207 205.55C61.3874 205.983 60.3874 206.2 59.1207 206.2C58.2207 206.2 57.304 205.933 56.3707 205.4C55.4707 204.833 54.7207 203.967 54.1207 202.8C53.5207 201.6 53.2207 200.117 53.2207 198.35C53.2207 194.55 53.2874 191.333 53.4207 188.7C53.5874 185.567 53.6707 181.617 53.6707 176.85C53.6707 175.35 53.754 174.3 53.9207 173.7C54.1207 173.233 54.4374 172.883 54.8707 172.65C55.3374 172.383 55.8207 172.25 56.3207 172.25C56.8207 172.25 57.254 172.333 57.6207 172.5C58.0207 172.667 58.2874 172.933 58.4207 173.3C58.554 173.7 58.6374 174.1 58.6707 174.5C58.7374 174.867 58.7707 175.4 58.7707 176.1C58.7707 177.467 58.7207 178.783 58.6207 180.05C58.554 181.583 58.5207 182.7 58.5207 183.4C58.254 189.267 58.1207 194.217 58.1207 198.25ZM78.2809 193.15C78.3809 192.883 78.7309 191.917 79.3309 190.25C79.9642 188.583 80.5475 187.317 81.0809 186.45C81.9475 185.083 82.7142 184.4 83.3809 184.4C84.3142 184.4 85.0309 184.583 85.5309 184.95C86.0309 185.283 86.2809 185.767 86.2809 186.4C86.2809 186.7 86.1475 187.117 85.8809 187.65C85.6475 188.183 85.5142 188.5 85.4809 188.6C84.1475 191.533 82.9475 194.683 81.8809 198.05L80.8309 201.95C80.4309 203.217 79.7475 204.25 78.7809 205.05C77.8142 205.817 76.6809 206.2 75.3809 206.2C74.2142 206.2 73.1309 205.667 72.1309 204.6C71.5309 203.667 70.8975 202.483 70.2309 201.05C69.5975 199.617 69.0475 198.217 68.5809 196.85L66.8309 191.6C66.4642 190.567 66.1642 189.683 65.9309 188.95C65.7309 188.217 65.6309 187.55 65.6309 186.95C65.5975 186.25 65.7975 185.683 66.2309 185.25C66.6642 184.817 67.2642 184.6 68.0309 184.6C68.8975 184.6 69.5142 184.783 69.8809 185.15C70.2475 185.483 70.5809 186.017 70.8809 186.75C71.0142 187.517 71.3809 189.083 71.9809 191.45L72.3309 192.85C72.6309 193.983 73.0142 195.133 73.4809 196.3C73.9475 197.467 74.4142 198.583 74.8809 199.65C74.8142 199.483 75.0475 200.033 75.5809 201.3C75.9142 200.333 76.2975 199.15 76.7309 197.75L78.2809 193.15ZM89.3254 194.55C89.3254 192.517 89.7754 190.833 90.6754 189.5C91.5754 188.133 92.8254 186.85 94.4254 185.65C94.8921 185.317 95.6754 185.033 96.7754 184.8C97.8754 184.533 98.8421 184.4 99.6754 184.4C100.675 184.4 101.725 184.617 102.825 185.05C103.959 185.45 104.875 185.917 105.575 186.45C106.809 187.35 107.659 188.4 108.125 189.6C108.592 190.767 108.825 192.167 108.825 193.8C108.825 194.5 108.425 195.183 107.625 195.85C106.859 196.483 106.025 196.8 105.125 196.8L103.225 196.75C102.259 196.75 100.875 196.783 99.0754 196.85L98.0254 196.9C97.2921 196.967 96.7421 197 96.3754 197C95.8421 197 95.1087 196.933 94.1754 196.8C94.3087 198.367 94.8921 199.6 95.9254 200.5C96.9587 201.367 98.0754 201.8 99.2754 201.8C101.375 201.8 102.842 201.383 103.675 200.55C104.375 200.05 104.842 199.733 105.075 199.6C105.309 199.467 105.675 199.4 106.175 199.4C106.709 199.4 107.175 199.65 107.575 200.15C107.975 200.65 108.175 201.15 108.175 201.65C108.175 202.217 107.825 202.8 107.125 203.4C106.459 203.967 105.542 204.567 104.375 205.2C103.742 205.467 102.875 205.7 101.775 205.9C100.675 206.1 99.7587 206.2 99.0254 206.2C97.8587 206.2 96.5587 205.867 95.1254 205.2C93.6921 204.5 92.6254 203.733 91.9254 202.9C91.2254 202.067 90.6087 200.883 90.0754 199.35C89.5754 197.817 89.3254 196.217 89.3254 194.55ZM99.2754 193.2C101.642 193.2 103.375 193.117 104.475 192.95C104.409 191.983 104.109 191.2 103.575 190.6C103.042 189.967 102.309 189.433 101.375 189C101.075 188.867 100.809 188.767 100.575 188.7C100.342 188.633 100.075 188.6 99.7754 188.6C98.2421 188.6 96.9421 189.017 95.8754 189.85C94.8421 190.683 94.2254 191.75 94.0254 193.05C95.6921 193.15 97.4421 193.2 99.2754 193.2ZM113.656 188.7C113.189 188.633 112.806 188.433 112.506 188.1C112.239 187.767 112.106 187.367 112.106 186.9C112.106 186.667 112.156 186.417 112.256 186.15C112.389 185.883 112.573 185.65 112.806 185.45C113.239 185.083 113.823 184.733 114.556 184.4C115.323 184.1 115.873 183.733 116.206 183.3C116.539 182.867 116.706 182.05 116.706 180.85C116.706 180.35 116.673 179.917 116.606 179.55C116.573 179.183 116.556 178.9 116.556 178.7C116.556 177.967 116.823 177.417 117.356 177.05C117.889 176.683 118.506 176.5 119.206 176.5C120.073 176.5 120.656 176.717 120.956 177.15C121.289 177.583 121.456 178.383 121.456 179.55C121.456 180.683 121.406 181.667 121.306 182.5C121.206 183.3 120.989 184.017 120.656 184.65C121.123 184.65 121.889 184.617 122.956 184.55C124.423 184.483 125.439 184.45 126.006 184.45C126.573 184.45 127.073 184.6 127.506 184.9C127.939 185.167 128.156 185.55 128.156 186.05C128.156 186.75 128.006 187.267 127.706 187.6C127.406 187.933 126.973 188.15 126.406 188.25C125.039 188.617 123.106 188.833 120.606 188.9C120.539 190.2 120.506 191.617 120.506 193.15C120.506 195.717 120.656 197.683 120.956 199.05C121.156 200.117 121.489 200.9 121.956 201.4C122.456 201.867 123.189 202.1 124.156 202.1C124.656 202.1 125.056 202.033 125.356 201.9C125.689 201.767 125.873 201.683 125.906 201.65C126.306 201.417 126.673 201.3 127.006 201.3C127.473 201.3 127.806 201.45 128.006 201.75C128.239 202.05 128.356 202.45 128.356 202.95C128.356 203.883 127.856 204.667 126.856 205.3C125.856 205.9 124.573 206.2 123.006 206.2C121.239 206.2 119.739 205.683 118.506 204.65C117.306 203.583 116.589 202.183 116.356 200.45C116.023 198.883 115.856 196.683 115.856 193.85C115.856 192.617 115.923 190.967 116.056 188.9L113.656 188.7Z" fill="white"/>
<path d="M164.085 189.1C166.518 189.4 168.318 190.183 169.485 191.45C170.685 192.683 171.285 194.217 171.285 196.05C171.285 197.883 170.602 199.617 169.235 201.25C167.902 202.883 166.185 204.15 164.085 205.05C163.152 205.417 161.918 205.683 160.385 205.85C158.885 206.017 157.335 206.1 155.735 206.1C153.068 206.1 150.335 205.85 147.535 205.35C147.035 205.25 146.502 205 145.935 204.6C145.402 204.2 145.135 203.617 145.135 202.85C145.102 199.783 144.985 195.517 144.785 190.05L144.735 187.3C144.602 183.033 144.535 179.683 144.535 177.25C144.535 176.817 144.785 176.317 145.285 175.75C145.818 175.15 146.452 174.817 147.185 174.75C147.618 174.75 148.035 174.733 148.435 174.7C152.202 174.333 154.718 174.15 155.985 174.15C158.485 174.15 160.685 174.4 162.585 174.9C164.518 175.367 166.118 176.233 167.385 177.5C167.852 178.033 168.235 178.717 168.535 179.55C168.835 180.35 168.985 181.133 168.985 181.9C169.018 183.533 168.585 185.033 167.685 186.4C166.818 187.767 165.618 188.667 164.085 189.1ZM156.285 178.4C155.152 178.4 153.968 178.467 152.735 178.6C151.535 178.733 150.518 178.9 149.685 179.1L149.985 188.55L151.785 188.5C154.685 188.2 156.818 187.95 158.185 187.75C159.052 187.55 159.902 187.167 160.735 186.6C161.568 186 162.252 185.383 162.785 184.75C163.352 184.083 163.635 183.583 163.635 183.25C163.635 182.75 163.535 182.25 163.335 181.75C163.135 181.217 162.918 180.833 162.685 180.6C161.785 179.733 160.868 179.15 159.935 178.85C159.002 178.55 157.785 178.4 156.285 178.4ZM150.135 201.7C151.835 201.933 153.452 202.05 154.985 202.05C158.352 202.05 161.002 201.617 162.935 200.75C164.902 199.85 165.885 198.15 165.885 195.65C165.885 194.65 165.135 193.817 163.635 193.15C162.135 192.483 160.518 192.15 158.785 192.15C157.618 192.15 156.135 192.283 154.335 192.55C152.902 192.75 151.502 192.883 150.135 192.95C150.202 194.95 150.235 196.217 150.235 196.75C150.235 197.783 150.218 198.567 150.185 199.1L150.135 201.7ZM178.359 173.9C179.526 174 180.526 174.317 181.359 174.85C182.226 175.35 182.659 176.117 182.659 177.15C182.659 177.917 182.309 178.533 181.609 179C180.909 179.433 180.043 179.65 179.009 179.65C178.043 179.65 177.376 179.4 177.009 178.9C176.643 178.4 176.459 177.883 176.459 177.35C176.459 176.383 176.576 175.567 176.809 174.9C177.043 174.2 177.559 173.867 178.359 173.9ZM177.359 194.55V193.1C177.359 191.433 177.276 189.917 177.109 188.55C176.976 187.15 176.893 186.283 176.859 185.95C176.893 185.583 177.143 185.233 177.609 184.9C178.076 184.567 178.493 184.4 178.859 184.4C179.493 184.4 180.126 184.533 180.759 184.8C181.426 185.033 181.843 185.333 182.009 185.7C182.176 186.933 182.259 187.883 182.259 188.55C182.259 190.017 182.326 192.417 182.459 195.75L182.509 197.7L182.609 199.6C182.643 200.133 182.676 200.767 182.709 201.5C182.743 202.233 182.759 203.067 182.759 204C182.759 204.633 182.443 205.167 181.809 205.6C181.209 206.033 180.576 206.25 179.909 206.25C178.943 206.25 178.259 206.033 177.859 205.6C177.493 205.167 177.309 204.483 177.309 203.55L177.359 194.55ZM188.605 188.7C188.138 188.633 187.755 188.433 187.455 188.1C187.188 187.767 187.055 187.367 187.055 186.9C187.055 186.667 187.105 186.417 187.205 186.15C187.338 185.883 187.521 185.65 187.755 185.45C188.188 185.017 189.355 184.8 191.255 184.8C191.521 183.5 191.655 182.183 191.655 180.85C191.655 180.35 191.638 179.917 191.605 179.55C191.571 179.183 191.555 178.9 191.555 178.7C191.555 177.967 191.821 177.417 192.355 177.05C192.921 176.683 193.555 176.5 194.255 176.5C195.121 176.5 195.705 176.717 196.005 177.15C196.338 177.583 196.505 178.383 196.505 179.55C196.505 181.283 196.355 182.983 196.055 184.65C196.588 184.65 197.321 184.617 198.255 184.55C199.521 184.483 200.438 184.45 201.005 184.45C201.571 184.45 202.055 184.6 202.455 184.9C202.888 185.167 203.105 185.55 203.105 186.05C203.105 187.35 202.521 188.117 201.355 188.35C200.121 188.65 198.205 188.833 195.605 188.9C195.505 190.2 195.455 191.617 195.455 193.15C195.455 195.55 195.605 197.517 195.905 199.05C196.105 200.117 196.438 200.9 196.905 201.4C197.405 201.867 198.138 202.1 199.105 202.1C199.671 202.1 200.255 201.95 200.855 201.65C201.255 201.417 201.621 201.3 201.955 201.3C202.421 201.3 202.755 201.45 202.955 201.75C203.188 202.05 203.305 202.45 203.305 202.95C203.305 203.883 202.805 204.667 201.805 205.3C200.805 205.9 199.521 206.2 197.955 206.2C196.988 206.2 196.005 205.967 195.005 205.5C194.038 205.033 193.221 204.45 192.555 203.75C192.455 203.65 192.271 203.267 192.005 202.6C191.738 201.933 191.505 201.217 191.305 200.45C190.971 198.883 190.805 196.683 190.805 193.85C190.805 192.617 190.871 190.967 191.005 188.9L188.605 188.7ZM207.004 195.4C207.004 194.133 207.237 192.867 207.704 191.6C208.17 190.3 208.787 189.117 209.554 188.05C210.32 186.983 211.537 186.117 213.204 185.45C214.87 184.75 216.354 184.4 217.654 184.4C218.987 184.4 220.337 184.583 221.704 184.95C223.104 185.317 224.07 185.883 224.604 186.65C225.837 188.383 226.454 190.083 226.454 191.75C226.454 192.65 226.254 193.417 225.854 194.05C225.487 194.683 224.954 195.367 224.254 196.1C223.687 196.7 222.787 197.1 221.554 197.3C220.354 197.5 219.154 197.6 217.954 197.6C217.187 197.6 216.254 197.533 215.154 197.4C214.054 197.233 212.987 197.033 211.954 196.8C212.02 197.467 212.187 198.117 212.454 198.75C212.72 199.383 213.037 199.867 213.404 200.2C214.07 200.833 214.754 201.233 215.454 201.4C216.187 201.567 217.12 201.65 218.254 201.65C219.454 201.65 220.57 201.45 221.604 201.05C222.437 200.75 223.12 200.6 223.654 200.6C224.287 200.6 224.77 200.8 225.104 201.2C225.437 201.567 225.604 202.05 225.604 202.65C225.604 203.483 225.12 204.167 224.154 204.7C223.187 205.233 222.07 205.633 220.804 205.9C219.57 206.133 218.57 206.25 217.804 206.25C216.237 206.25 214.72 205.967 213.254 205.4C211.787 204.833 210.57 204.033 209.604 203C208.804 202.067 208.17 200.95 207.704 199.65C207.237 198.317 207.004 196.9 207.004 195.4ZM217.904 188.65C217.17 188.65 216.437 188.8 215.704 189.1C214.97 189.367 214.37 189.75 213.904 190.25C213.304 190.883 212.887 191.4 212.654 191.8C212.454 192.167 212.32 192.683 212.254 193.35C213.087 193.617 214.82 193.75 217.454 193.75C218.887 193.75 219.987 193.533 220.754 193.1C221.554 192.667 221.954 192.1 221.954 191.4C221.954 190.7 221.52 190.067 220.654 189.5C219.787 188.933 218.87 188.65 217.904 188.65Z" fill="#2B964F"/>
<g clip-path="url(#clip0_5_17)">
<path d="M191.441 130.481C190.595 88.5062 155.183 53.6621 113.16 54.3389C72.0672 54.1093 36.8001 89.3884 37.2231 130.481L35.3256 128.173C60.9239 133.309 87.1023 135.533 113.208 136.101C139.314 136.669 165.71 135.63 191.441 130.481ZM191.441 130.481C165.976 137.177 139.471 139.05 113.184 139.401C86.1716 139.521 59.0989 137.624 32.5216 132.415C32.256 121.174 34.3133 109.999 38.5647 99.5891C50.409 69.942 81.2163 49.4682 113.136 50.0363C156.428 49.855 193.145 87.2371 191.417 130.445L191.441 130.481Z" fill="white"/>
<path d="M113.16 59.6205C87.5736 61.8081 66.3989 77.4112 54.3249 99.6253C50.3508 106.973 47.2865 114.778 45.1999 122.867C45.7499 114.323 47.8895 105.958 51.5088 98.1992C61.9874 74.7643 86.9451 56.8528 113.148 59.6205H113.16Z" fill="white"/>
<path d="M109.897 60.2611C89.3503 64.7329 72.1639 78.6319 61.9028 96.8697C70.0126 77.532 88.7822 62.3882 109.897 60.2611Z" fill="white"/>
<path d="M203.95 129.659C203.612 129.659 203.02 130.239 202.742 130.421C199.932 132.506 196.943 134.338 193.81 135.896C175.766 144.706 155.497 147.716 135.664 149.299C103.938 150.943 71.2695 150.314 40.7281 140.609C33.2106 137.95 25.7051 134.651 19.6742 129.393C26.3215 133.781 33.839 136.355 41.4291 138.361C72.0672 145.613 104.047 145.758 135.386 144.634C154.953 143.558 174.787 141.479 193.266 134.639C196.503 133.403 199.646 131.933 202.669 130.239L203.322 129.889C203.539 129.792 203.769 129.587 204.011 129.647L203.95 129.659Z" fill="white"/>
<path d="M119.432 49.0935C114.598 54.1213 105.376 51.1965 104.796 43.8965C104.702 42.6313 104.883 41.3608 105.324 40.1715C105.766 38.9823 106.459 37.9023 107.356 37.0052C108.253 36.1081 109.333 35.4151 110.523 34.9733C111.712 34.5315 112.982 34.3514 114.248 34.4452C121.499 35.0133 124.472 44.2591 119.432 49.0935ZM119.432 49.0935C120.053 48.5402 120.554 47.8661 120.906 47.1125C121.257 46.3588 121.451 45.5414 121.476 44.7102C121.5 43.8791 121.355 43.0516 121.049 42.2784C120.743 41.5052 120.283 40.8025 119.696 40.2133C119.11 39.6241 118.409 39.1608 117.637 38.8516C116.865 38.5424 116.038 38.3938 115.207 38.415C114.376 38.4362 113.557 38.6268 112.802 38.9749C112.047 39.3231 111.371 39.8216 110.815 40.4399C110.232 41.004 109.767 41.6784 109.447 42.424C109.127 43.1696 108.958 43.9714 108.951 44.7827C108.944 45.594 109.099 46.3986 109.406 47.1497C109.712 47.9007 110.166 48.5832 110.739 49.1573C111.312 49.7314 111.994 50.1857 112.745 50.4937C113.496 50.8017 114.3 50.9573 115.111 50.9514C115.923 50.9454 116.725 50.7781 117.471 50.4592C118.217 50.1402 118.892 49.676 119.457 49.0935H119.432Z" fill="white"/>
<path d="M148.499 0C137.247 15.0471 157.781 24.7764 157.685 39.1709C157.491 42.1331 156.451 44.9773 154.687 47.3652C149.853 54.4839 143.738 60.5511 139.096 67.7302C133.319 76.3234 135.966 83.0312 144.003 88.6633C151.581 93.6669 157.794 101.958 152.923 111.168C151.555 113.82 149.663 116.167 147.363 118.069L146.614 116.667C154.301 113.887 169.807 107.433 168.599 97.4861C168.176 94.0778 164.973 91.6848 164.779 88.1798C164.477 85.7626 166.955 83.9497 168.816 83.1883C173.832 81.0733 178.993 79.8284 183.609 76.9761C188.191 74.2731 191.95 70.3753 194.487 65.6998C198.246 58.7261 200.469 50.556 198.681 42.6638C198.197 40.0532 197.218 37.4426 197.472 34.6628C198.185 29.0186 203.999 26.0817 208.35 23.3744C204.978 25.4895 201.412 27.6771 199.128 31.0128C196.65 34.554 198.427 38.7116 199.285 42.5429C199.921 45.1964 200.174 47.9275 200.034 50.6527C199.176 61.4213 193.75 72.3471 184.322 78.0155C179.766 80.9403 174.364 82.4027 169.481 84.4573C167.064 85.4967 165.456 87.1284 166.713 89.8357C167.765 92.3133 169.783 94.4284 170.133 97.2565C171.668 109.463 152.343 116.51 143.085 119.628C155.993 109.959 156.899 99.3111 143.194 89.8719C138.54 86.5482 133.754 81.4117 134.733 75.1511C135.628 69.1927 139.652 64.5758 143.194 60.0798C146.735 55.5838 150.639 51.4141 153.902 46.7851C155.564 44.556 156.549 41.8962 156.742 39.1226C156.863 25.0423 136.909 14.8658 148.487 0H148.499Z" fill="white"/>
<path d="M174.593 9.68093C176.261 12.497 178.219 15.4218 181.241 16.9326L185.265 18.9872L184.25 19.5794C181.47 21.0781 178.449 22.9635 176.914 25.8158L174.593 30.0943C174.146 29.2603 172.744 26.6981 172.273 25.8158C170.75 22.9756 167.704 21.066 164.936 19.5915L163.909 18.9872L167.934 16.9326C170.955 15.4097 172.925 12.497 174.593 9.68093ZM174.593 9.68093C173.203 12.92 171.584 15.9778 168.478 17.8511C167.487 18.4675 166.52 19.0597 165.541 19.5915V18.4675C168.707 19.942 171.886 21.8516 173.638 25.006L175.306 27.9913H173.88L175.548 25.006C177.3 21.8516 180.479 19.942 183.646 18.4675V19.5794C182.667 18.9993 181.7 18.4675 180.709 17.8511C177.603 15.9778 175.983 12.92 174.593 9.68093Z" fill="white"/>
<path d="M183.331 40.2345C184.198 41.7427 185.449 42.9939 186.957 43.8603L189.568 45.0689L187.054 46.6038C185.718 47.5689 184.682 48.8932 184.069 50.423L183.356 51.7525L182.642 50.423C182.017 48.8966 180.979 47.5743 179.645 46.6038C179.053 46.2292 177.723 45.3952 177.131 45.0689L179.742 43.8603C181.249 42.9925 182.5 41.7416 183.368 40.2345H183.331ZM183.331 40.2345C183.001 41.4191 182.42 42.5188 181.628 43.4593C180.835 44.3997 179.85 45.1589 178.739 45.6853V44.5613C180.55 45.2199 182.101 46.4447 183.162 48.0541L184.044 49.6253H182.618L183.501 48.0541C184.551 46.4429 186.101 45.2203 187.912 44.5734V45.6369C186.808 45.1137 185.829 44.3612 185.039 43.4296C184.249 42.498 183.667 41.4088 183.331 40.2345Z" fill="white"/>
</g>
<defs>
<clipPath id="clip0_5_17">
<rect width="188.651" height="150" fill="white" transform="translate(19.65)"/>
</clipPath>
</defs>
</svg>
