<svg width="349" height="302" viewBox="0 0 349 302" fill="none" xmlns="http://www.w3.org/2000/svg">
<g clip-path="url(#clip0_9_1345)">
<path d="M50.0028 276.428C116.683 310.519 224.795 310.519 291.468 276.428C358.14 242.336 358.148 187.03 291.468 152.976C224.787 118.922 116.683 118.884 50.0028 152.976C-16.6776 187.067 -16.6701 242.344 50.0028 276.428Z" fill="#F5F5F5"/>
<path d="M268.074 221.97C271.732 224.081 278.914 223.352 284.113 220.347L314.103 202.926C319.309 199.921 320.556 195.774 316.897 193.656C313.239 191.537 306.064 192.288 300.858 195.293L270.883 212.73C265.677 215.712 264.423 219.859 268.074 221.97Z" fill="#EBEBEB"/>
<path d="M87.4598 238.039L56.9518 220.422L87.4598 202.798V238.039Z" fill="#EBEBEB"/>
<path d="M173.71 248.579L124.526 220.167L173.725 191.808L173.71 248.579Z" fill="#EBEBEB"/>
<path d="M46.179 196.848C46.2691 189.712 41.2808 174.86 33.9863 165.507C26.6917 156.154 15.1075 149.235 6.84383 151.962C-0.893985 154.508 -0.180303 164.62 9.09756 171.434C18.3754 178.248 32.311 186.827 36.2851 198.479L44.7366 212.752L46.179 196.848Z" fill="#27DEBF"/>
<path opacity="0.1" d="M46.179 196.848C46.2691 189.712 41.2808 174.86 33.9863 165.507C26.6917 156.154 15.1075 149.235 6.84383 151.962C-0.893985 154.508 -0.180303 164.62 9.09756 171.434C18.3754 178.248 32.311 186.827 36.2851 198.479L44.7366 212.752L46.179 196.848Z" fill="black"/>
<path d="M46.5921 206.622C46.4781 206.612 46.3706 206.565 46.2863 206.487C46.2021 206.41 46.1458 206.307 46.1264 206.194C41.6189 181.771 22.1617 161.728 10.4197 157.213C10.3488 157.193 10.2827 157.159 10.2257 157.113C10.1687 157.067 10.1221 157.009 10.0888 156.943C10.0556 156.877 10.0365 156.806 10.0328 156.732C10.029 156.659 10.0408 156.585 10.0672 156.517C10.0936 156.448 10.1341 156.386 10.186 156.334C10.238 156.282 10.3003 156.241 10.369 156.215C10.4376 156.188 10.511 156.177 10.5844 156.18C10.6579 156.184 10.7297 156.203 10.7954 156.236C22.7627 160.841 42.5955 181.215 47.1481 206.006C47.1611 206.073 47.1608 206.142 47.1471 206.209C47.1333 206.276 47.1065 206.34 47.0681 206.396C47.0297 206.453 46.9805 206.501 46.9233 206.539C46.8661 206.576 46.8021 206.602 46.7349 206.615L46.5921 206.622Z" fill="white"/>
<path d="M42.7683 222.173C41.6715 218.146 36.8485 211.468 28.9905 205.901C20.2911 199.748 9.23278 196.833 6.73114 192.093C3.72616 186.399 8.55666 181.11 17.5491 182.327C26.5414 183.544 42.2274 196.045 44.5412 214.57L42.7683 222.173Z" fill="#27DEBF"/>
<path d="M44.5638 217.981C44.4634 217.973 44.3676 217.935 44.2877 217.874C44.2078 217.813 44.1472 217.73 44.113 217.635C36.8936 196.668 21.0574 189.148 13.6952 188.104C13.5587 188.085 13.4353 188.013 13.3522 187.903C13.2691 187.793 13.233 187.654 13.2519 187.518C13.2709 187.382 13.3432 187.258 13.4531 187.175C13.563 187.092 13.7014 187.056 13.8379 187.075C21.9814 188.232 37.735 195.894 45.1047 217.29C45.1483 217.421 45.1389 217.565 45.0786 217.69C45.0183 217.814 44.9118 217.911 44.7816 217.958C44.7112 217.98 44.6372 217.988 44.5638 217.981Z" fill="white"/>
<path d="M312.547 176.512C312.547 176.512 313.547 161.487 322.411 150.294C331.276 139.1 330.735 134.518 324.62 132.264C318.505 130.01 304.336 143.495 307.462 161.487C310.587 179.48 312.547 176.512 312.547 176.512Z" fill="#27DEBF"/>
<path opacity="0.1" d="M312.547 176.512C312.547 176.512 313.547 161.487 322.411 150.294C331.276 139.1 330.735 134.518 324.62 132.264C318.505 130.01 304.336 143.495 307.462 161.487C310.587 179.48 312.547 176.512 312.547 176.512Z" fill="black"/>
<path d="M309.835 167.933C309.747 167.933 309.661 167.9 309.596 167.84C309.53 167.781 309.49 167.698 309.482 167.61C308.453 151.038 320.15 137.44 324.507 134.36C324.544 134.333 324.586 134.314 324.63 134.303C324.674 134.292 324.72 134.291 324.765 134.299C324.81 134.306 324.853 134.323 324.891 134.348C324.93 134.373 324.963 134.405 324.988 134.443C325.041 134.519 325.062 134.612 325.047 134.704C325.031 134.795 324.98 134.877 324.905 134.931C320.608 137.936 309.129 151.285 310.151 167.565C310.155 167.656 310.124 167.745 310.064 167.814C310.003 167.883 309.919 167.925 309.828 167.933H309.835Z" fill="white"/>
<path d="M310.136 188.953C314.128 190.257 318.218 191.242 322.366 191.898C329.233 192.979 332.268 189.697 332.268 189.697C332.268 189.697 329.563 183.258 325.664 181.433C329.883 182.381 333.911 184.034 337.579 186.323C337.579 186.323 341.771 186.391 343.439 179.99C343.439 179.99 340.959 176.137 332.621 174.056C332.621 174.056 337.692 172.779 345.001 174.642C345.55 174.859 347.886 166.588 348.592 162.772C349.298 158.956 347.766 159.016 344.791 158.197C341.816 157.378 331.952 155.192 330.089 156.822C328.226 158.452 327.279 164.057 327.279 164.057C326.541 161.762 326.445 159.31 327.001 156.965C327.001 156.965 324.327 155.921 320.165 157.13C316.769 158.114 316.604 160.428 316.754 163.042C316.955 165.313 317.461 167.547 318.257 169.683C318.257 169.683 315.605 166.288 315.522 158.918C315.522 158.918 308.566 162.374 307.379 169.285C306.688 173.034 305.771 184.025 310.136 188.953Z" fill="#27DEBF"/>
<path d="M311.443 187.616C311.516 187.615 311.588 187.595 311.65 187.556C311.713 187.518 311.763 187.463 311.796 187.398C317.333 175.881 337.939 162.502 345.317 161.067C345.367 161.058 345.414 161.039 345.457 161.011C345.5 160.984 345.536 160.948 345.565 160.906C345.594 160.864 345.614 160.817 345.624 160.767C345.634 160.717 345.634 160.666 345.625 160.616C345.603 160.515 345.543 160.427 345.458 160.37C345.372 160.312 345.268 160.29 345.166 160.308C337.654 161.773 316.724 175.333 311.098 187.06C311.053 187.152 311.048 187.259 311.081 187.356C311.115 187.453 311.186 187.533 311.278 187.578C311.33 187.601 311.386 187.614 311.443 187.616Z" fill="white"/>
<path d="M43.4895 227.492C42.6406 227.492 42.1298 226.793 42.1298 225.614V99.2468L196.909 9.90143V135.757C196.855 136.808 196.555 137.832 196.033 138.745C195.511 139.659 194.782 140.437 193.904 141.016L44.7215 227.109C44.3514 227.342 43.9266 227.474 43.4895 227.492Z" fill="#FAFAFA"/>
<path d="M196.443 10.6602V135.757C196.38 136.732 196.093 137.679 195.604 138.525C195.116 139.37 194.439 140.092 193.626 140.633L44.5037 226.725C44.2001 226.922 43.8505 227.036 43.4895 227.056C42.6556 227.056 42.5655 226.042 42.5655 225.614V99.5023L196.443 10.6602ZM197.322 9.15767L41.6865 98.9914V225.614C41.6865 227.116 42.4378 227.935 43.4895 227.935C44.0032 227.916 44.5031 227.763 44.9394 227.492L194.069 141.392C195.015 140.774 195.803 139.942 196.368 138.963C196.933 137.984 197.26 136.886 197.322 135.757V9.13513V9.15767Z" fill="#E0E0E0"/>
<path d="M41.694 98.9914V120.131L197.322 30.2826V9.13513L41.694 98.9914Z" fill="#27DEBF"/>
<path d="M53.8942 100.118V103.123C53.8942 103.739 54.3375 103.995 54.8708 103.687L102.718 76.0635V70.8047L54.8708 98.428C54.5882 98.6148 54.3529 98.8647 54.1834 99.1581C54.0139 99.4514 53.9149 99.7801 53.8942 100.118Z" fill="#FAFAFA"/>
<path d="M107.849 67.8448C108.389 67.5293 108.825 67.7847 108.825 68.4082V71.4132C108.806 71.7517 108.707 72.0808 108.538 72.3743C108.368 72.6678 108.132 72.9176 107.849 73.1035L102.718 76.0634V70.8047L107.849 67.8448Z" fill="#455A64"/>
<path d="M41.6865 92.1776C41.7482 91.049 42.0748 89.9508 42.64 88.9719C43.2051 87.993 43.9929 87.161 44.9394 86.5433L194.069 0.443244C195.864 -0.593472 197.322 0.247921 197.322 2.32135V9.13513L41.6865 98.9914V92.1776Z" fill="#455A64"/>
<path d="M180.021 12.095C179.581 12.3857 179.215 12.7759 178.954 13.234C178.693 13.6921 178.544 14.2053 178.518 14.7319C178.518 15.7085 179.202 16.0991 180.021 15.6183C180.461 15.326 180.826 14.9344 181.087 14.4751C181.348 14.0158 181.497 13.5016 181.523 12.974C181.553 11.9898 180.869 11.6067 180.021 12.095Z" fill="#27DEBF"/>
<path d="M184.889 9.30043C184.449 9.59114 184.084 9.98135 183.822 10.4394C183.561 10.8976 183.412 11.4107 183.386 11.9373C183.386 12.9139 184.07 13.3046 184.889 12.8238C185.328 12.5306 185.692 12.1388 185.953 11.6796C186.214 11.2205 186.364 10.7068 186.391 10.1794C186.391 9.20277 185.7 8.81212 184.889 9.30043Z" fill="#27DEBF"/>
<path d="M189.689 6.50576C189.249 6.79647 188.884 7.18667 188.623 7.64477C188.362 8.10287 188.212 8.616 188.187 9.14262C188.187 10.1192 188.87 10.5099 189.689 10.0291C190.128 9.73589 190.493 9.34409 190.754 8.88496C191.015 8.42583 191.165 7.91208 191.192 7.38471C191.214 6.40809 190.53 6.01745 189.689 6.50576Z" fill="#27DEBF"/>
<g opacity="0.1">
<path d="M148.491 44.0455C147.521 44.6803 146.714 45.5349 146.135 46.5399C145.557 47.545 145.224 48.6722 145.163 49.8301C145.163 51.9561 146.665 52.835 148.491 51.7532C149.462 51.1209 150.271 50.268 150.85 49.2642C151.43 48.2603 151.764 47.1337 151.826 45.9762C151.834 43.8501 150.331 42.9862 148.491 44.0455Z" fill="black"/>
<path d="M133.241 52.8576C132.269 53.4899 131.461 54.3427 130.881 55.3466C130.301 56.3505 129.967 57.4771 129.905 58.6346C129.905 60.7606 131.408 61.6396 133.241 60.5653C134.211 59.9305 135.018 59.0759 135.596 58.0709C136.174 57.0658 136.508 55.9386 136.569 54.7807C136.569 52.6547 135.081 51.8058 133.241 52.8576Z" fill="black"/>
<path d="M163.749 35.2784C162.779 35.9116 161.971 36.7648 161.393 37.7686C160.815 38.7725 160.482 39.8986 160.421 41.0555C160.421 43.1815 161.923 44.0605 163.749 42.9787C164.721 42.3468 165.529 41.494 166.109 40.4901C166.689 39.4861 167.023 38.3593 167.084 37.2016C167.084 35.038 165.597 34.1741 163.749 35.2784Z" fill="black"/>
<path d="M179.014 26.4138C178.042 27.0461 177.234 27.899 176.654 28.9028C176.075 29.9067 175.74 31.0333 175.678 32.1908C175.678 34.3169 177.181 35.1958 179.014 34.114C179.985 33.4817 180.794 32.6288 181.374 31.6249C181.953 30.6211 182.288 29.4945 182.349 28.337C182.349 26.2109 180.854 25.347 179.014 26.4138Z" fill="black"/>
</g>
<path d="M57.1772 121.784L93.3946 100.87C95.1901 99.8328 96.6475 100.674 96.6475 102.748V137.523C96.5858 138.651 96.2592 139.75 95.6941 140.728C95.129 141.707 94.3412 142.539 93.3946 143.157L57.1772 164.064C55.3817 165.101 53.9243 164.259 53.9243 162.186V127.418C53.986 126.29 54.3126 125.192 54.8777 124.213C55.4429 123.234 56.2306 122.402 57.1772 121.784Z" fill="#E0E0E0"/>
<path d="M109.013 91.8321L184.889 48.0496C186.684 47.0053 188.141 47.8467 188.141 49.9277V84.6953C188.08 85.8239 187.753 86.9221 187.188 87.901C186.623 88.8798 185.835 89.7118 184.889 90.3296L109.013 134.112C107.218 135.149 105.76 134.307 105.76 132.234V97.4664C105.822 96.3378 106.148 95.2396 106.714 94.2607C107.279 93.2818 108.066 92.4498 109.013 91.8321Z" fill="#E0E0E0"/>
<path d="M57.1772 174.634L114.752 141.392C116.555 140.355 118.013 141.091 118.013 143.037C117.933 144.129 117.596 145.187 117.031 146.126C116.466 147.064 115.688 147.856 114.76 148.438L57.1772 181.681C55.3817 182.718 53.9243 181.981 53.9243 180.036C54.0046 178.943 54.3409 177.885 54.906 176.947C55.4711 176.008 56.2491 175.216 57.1772 174.634Z" fill="#E0E0E0"/>
<path d="M57.1772 186.97L114.752 153.727C116.555 152.69 118.013 153.427 118.013 155.372C117.933 156.465 117.596 157.523 117.031 158.461C116.466 159.4 115.688 160.192 114.76 160.774L57.1772 194.016C55.3817 195.053 53.9243 194.317 53.9243 192.371C54.0046 191.279 54.3409 190.22 54.906 189.282C55.4711 188.344 56.2491 187.551 57.1772 186.97Z" fill="#E0E0E0"/>
<path d="M57.1772 199.297L114.752 166.055C116.555 165.018 118.013 165.754 118.013 167.7C117.933 168.793 117.596 169.851 117.031 170.789C116.466 171.728 115.688 172.52 114.76 173.102L57.1772 206.344C55.3817 207.381 53.9243 206.645 53.9243 204.699C54.0046 203.606 54.3409 202.548 54.906 201.61C55.4711 200.672 56.2491 199.879 57.1772 199.297Z" fill="#E0E0E0"/>
<path d="M84.4098 157.483C84.4482 156.806 84.645 156.148 84.9842 155.561C85.3234 154.973 85.7957 154.474 86.363 154.103L186.211 96.4597C186.816 96.1522 187.485 95.9919 188.164 95.9919C188.843 95.9919 189.512 96.1522 190.117 96.4597L192.318 97.7293C192.886 98.1002 193.357 98.5997 193.695 99.187C194.033 99.7744 194.228 100.433 194.264 101.11V177.647C194.227 178.323 194.032 178.981 193.694 179.569C193.356 180.156 192.885 180.655 192.318 181.027L92.4856 238.67C91.8804 238.978 91.2112 239.138 90.5324 239.138C89.8536 239.138 89.1844 238.978 88.5792 238.67L86.378 237.401C85.8103 237.03 85.3377 236.53 84.9985 235.943C84.6592 235.356 84.4627 234.697 84.4248 234.02L84.4098 157.483Z" fill="#27DEBF"/>
<path opacity="0.4" d="M84.9732 155.56L90.5174 158.76L193.686 99.1867C193.356 98.5921 192.883 98.0888 192.311 97.7217L190.147 96.4597C189.545 96.1523 188.878 95.9921 188.202 95.9921C187.525 95.9921 186.858 96.1523 186.256 96.4597L86.363 154.103C85.7842 154.463 85.3061 154.965 84.9732 155.56Z" fill="white"/>
<path opacity="0.1" d="M84.4098 157.483V234.02C84.4476 234.697 84.6441 235.356 84.9834 235.943C85.3227 236.53 85.7953 237.029 86.363 237.4L88.5641 238.67C88.7333 238.768 88.912 238.849 89.0975 238.91C89.3589 238.998 89.6281 239.061 89.9014 239.098C90.4146 239.161 90.9346 239.141 91.4414 239.038C91.5712 239.015 91.6992 238.982 91.8245 238.941L92.0574 238.85C91.9091 238.914 91.7494 238.947 91.5879 238.947C91.4264 238.947 91.2667 238.914 91.1184 238.85C90.9104 238.712 90.7449 238.519 90.6402 238.292C90.5354 238.065 90.4955 237.814 90.5249 237.566V161.014C90.5051 160.666 90.5914 160.32 90.7725 160.022C90.9537 159.725 91.221 159.489 91.5391 159.346L90.5249 158.76L84.9732 155.56C84.6251 156.143 84.4312 156.805 84.4098 157.483Z" fill="black"/>
<path opacity="0.2" d="M90.5249 158.76L136.764 176.039C138.363 176.635 140.117 176.669 141.738 176.135C143.359 175.601 144.749 174.531 145.681 173.102L153.104 161.728L194.061 98.9763L154.583 162.156L194.264 177.684C194.231 178.374 194.022 179.044 193.656 179.63L154.478 162.351L145.824 176.137C144.865 177.668 143.387 178.803 141.659 179.333C139.932 179.863 138.071 179.752 136.418 179.021L130.273 176.309L91.1184 238.865C90.9104 238.727 90.7449 238.534 90.6402 238.307C90.5354 238.08 90.4955 237.829 90.5249 237.581V236.311L130.1 176.264L90.5249 158.76Z" fill="black"/>
<path d="M172.906 70.8949V246.611C172.906 248.684 174.364 249.526 176.159 248.489L255.1 202.911C256.046 202.293 256.834 201.461 257.399 200.482C257.964 199.503 258.291 198.405 258.353 197.277V21.5607C258.353 19.4872 256.895 18.6458 255.1 19.6826L176.159 65.2605C175.212 65.8774 174.423 66.7092 173.858 67.6882C173.293 68.6673 172.967 69.766 172.906 70.8949Z" fill="#FAFAFA" stroke="#E0E0E0" stroke-width="1.17" stroke-miterlimit="10"/>
<path d="M177.481 74.1627C177.507 73.8845 177.597 73.616 177.744 73.3787C177.891 73.1413 178.092 72.9416 178.33 72.7955L187.345 67.6044C187.811 67.3339 188.187 67.5142 188.187 68.0025C188.163 68.2802 188.074 68.5485 187.928 68.7859C187.782 69.0233 187.582 69.2233 187.345 69.3698L178.33 74.5609C177.864 74.8313 177.481 74.651 177.481 74.1627Z" fill="#455A64"/>
<path d="M177.481 77.6636C177.506 77.3852 177.596 77.1165 177.743 76.879C177.891 76.6416 178.092 76.442 178.33 76.2963L187.345 71.1052C187.811 70.8348 188.187 71.0151 188.187 71.4959C188.164 71.7749 188.076 72.0447 187.93 72.2834C187.783 72.5222 187.583 72.7234 187.345 72.8706L178.33 78.0542C177.864 78.3247 177.481 78.1519 177.481 77.6636Z" fill="#455A64"/>
<path d="M177.481 81.1643C177.506 80.886 177.596 80.6172 177.743 80.3798C177.891 80.1424 178.092 79.9428 178.33 79.7971L187.345 74.606C187.811 74.3355 188.187 74.5083 188.187 74.9966C188.164 75.2747 188.076 75.5434 187.929 75.781C187.783 76.0185 187.583 76.2183 187.345 76.3639L178.33 81.555C177.864 81.8555 177.481 81.6527 177.481 81.1643Z" fill="#455A64"/>
<path d="M252.253 36.1047V34.6999C252.253 34.6828 252.249 34.6659 252.241 34.6508C252.233 34.6357 252.222 34.6229 252.207 34.6138C252.193 34.6047 252.176 34.5995 252.159 34.5988C252.142 34.5981 252.125 34.6019 252.11 34.6098L251.028 35.0981C251.011 35.1065 250.992 35.111 250.973 35.1113C250.954 35.1116 250.936 35.1076 250.918 35.0997C250.901 35.0918 250.886 35.0801 250.874 35.0655C250.861 35.0509 250.853 35.0338 250.848 35.0154C250.791 34.8281 250.71 34.6489 250.607 34.482C250.587 34.4412 250.576 34.3962 250.576 34.3506C250.576 34.3049 250.587 34.2599 250.607 34.2191L251.359 32.7617C251.377 32.7248 251.38 32.682 251.368 32.6427C251.355 32.6034 251.328 32.5706 251.291 32.5513L250.54 32.1006C250.504 32.0825 250.463 32.0779 250.425 32.0876C250.386 32.0972 250.352 32.1205 250.329 32.1532L249.428 33.5054C249.401 33.5417 249.366 33.5709 249.325 33.5905C249.285 33.6101 249.24 33.6196 249.195 33.6181C248.998 33.6165 248.802 33.6367 248.609 33.6782C248.591 33.6839 248.571 33.6854 248.552 33.6826C248.533 33.6797 248.515 33.6726 248.499 33.6618C248.483 33.6509 248.47 33.6366 248.461 33.62C248.451 33.6033 248.445 33.5847 248.444 33.5655L248.324 32.3861C248.324 32.3034 248.249 32.2659 248.181 32.3109L246.964 33.0096C246.925 33.0348 246.893 33.068 246.868 33.1069C246.844 33.1457 246.828 33.1894 246.821 33.235L246.701 34.5872C246.685 34.6832 246.64 34.7721 246.573 34.8426C246.329 35.0758 246.103 35.3269 245.897 35.5939C245.868 35.6276 245.83 35.652 245.787 35.664C245.744 35.6761 245.699 35.6752 245.657 35.6615L244.905 35.391C244.865 35.3783 244.822 35.3795 244.782 35.3945C244.743 35.4095 244.709 35.4374 244.688 35.4737L243.794 37.0212C243.775 37.058 243.769 37.0995 243.776 37.14C243.783 37.1804 243.802 37.2178 243.831 37.2466L244.462 37.7875C244.493 37.8183 244.515 37.857 244.526 37.8994C244.536 37.9417 244.535 37.9862 244.522 38.0279C244.407 38.3369 244.311 38.6531 244.237 38.9745C244.212 39.0656 244.159 39.1468 244.087 39.2074L242.975 39.9586C242.938 39.9873 242.907 40.0236 242.885 40.065C242.863 40.1065 242.85 40.1522 242.847 40.199V41.5963C242.843 41.6143 242.845 41.633 242.852 41.6499C242.86 41.6668 242.872 41.6811 242.887 41.6909C242.903 41.7007 242.921 41.7055 242.939 41.7047C242.958 41.7039 242.975 41.6976 242.99 41.6865L244.072 41.1982C244.089 41.1911 244.108 41.1879 244.127 41.1888C244.146 41.1896 244.165 41.1944 244.182 41.2029C244.199 41.2114 244.214 41.2234 244.226 41.2381C244.238 41.2529 244.247 41.27 244.252 41.2883C244.309 41.4756 244.39 41.6548 244.492 41.8217C244.513 41.8625 244.523 41.9075 244.523 41.9532C244.523 41.9988 244.513 42.0438 244.492 42.0846L243.741 43.5345C243.724 43.5729 243.721 43.6161 243.734 43.6562C243.746 43.6963 243.773 43.7305 243.809 43.7524L244.56 44.2031C244.595 44.2212 244.636 44.2258 244.675 44.2162C244.714 44.2065 244.747 44.1832 244.77 44.1505L245.672 42.7983C245.699 42.7621 245.734 42.7329 245.774 42.7132C245.815 42.6936 245.86 42.6841 245.905 42.6856C246.102 42.6872 246.298 42.6671 246.491 42.6255C246.509 42.6198 246.528 42.6183 246.547 42.6212C246.566 42.624 246.585 42.6311 246.6 42.642C246.616 42.6528 246.63 42.6671 246.639 42.6837C246.649 42.7004 246.654 42.719 246.656 42.7382L246.776 43.9177C246.776 44.0003 246.844 44.0379 246.919 43.9928L248.136 43.2941C248.174 43.267 248.207 43.2324 248.231 43.1924C248.256 43.1523 248.272 43.1077 248.279 43.0612L248.399 41.709C248.414 41.6148 248.458 41.5278 248.526 41.4611C248.77 41.2279 248.996 40.9768 249.203 40.7099C249.232 40.6761 249.27 40.6517 249.313 40.6397C249.355 40.6277 249.401 40.6286 249.443 40.6422L250.194 40.9127C250.235 40.9254 250.278 40.9242 250.318 40.9092C250.357 40.8942 250.39 40.8663 250.412 40.83L251.306 39.2825C251.325 39.2441 251.331 39.2005 251.323 39.1584C251.315 39.1163 251.293 39.0781 251.261 39.0496L250.637 38.5162C250.607 38.4854 250.585 38.4467 250.574 38.4044C250.563 38.362 250.565 38.3176 250.577 38.2758C250.693 37.9669 250.788 37.6507 250.863 37.3293C250.884 37.2364 250.937 37.1539 251.013 37.0964L252.125 36.3451C252.161 36.3158 252.191 36.2794 252.213 36.238C252.235 36.1967 252.249 36.1514 252.253 36.1047ZM247.497 40.5371C246.363 41.1982 245.446 40.6648 245.446 39.3576C245.482 38.644 245.686 37.949 246.042 37.3299C246.399 36.7107 246.898 36.1852 247.497 35.7967C248.632 35.1431 249.548 35.6765 249.548 36.9837C249.512 37.696 249.307 38.3895 248.95 39.0072C248.594 39.625 248.096 40.1493 247.497 40.5371Z" fill="#37474F"/>
<path d="M215.63 70.7371C224.855 65.4108 232.33 69.7304 232.33 80.3831C232.33 91.0357 224.855 103.98 215.63 109.306C206.404 114.632 198.929 110.313 198.929 99.6675C198.929 89.0224 206.404 76.0634 215.63 70.7371Z" fill="#455A64"/>
<path d="M215.517 79.121C218.522 77.3931 220.933 78.7904 220.933 82.2461C220.83 84.1245 220.286 85.9522 219.345 87.5811C218.404 89.2099 217.093 90.5942 215.517 91.6217C212.512 93.3495 210.093 91.9522 210.093 88.4965C210.196 86.6173 210.741 84.789 211.683 83.16C212.626 81.5309 213.939 80.1472 215.517 79.121Z" fill="#27DEBF"/>
<path d="M226.207 97.5415C226.207 91.8696 222.218 89.5632 217.305 92.4029L214.187 94.1759C209.274 97.0156 205.285 103.942 205.285 109.599V111.154C206.212 111.45 207.181 111.6 208.155 111.597C210.79 111.508 213.357 110.731 215.599 109.343C219.891 106.708 223.519 103.122 226.207 98.8636V97.5415Z" fill="#27DEBF"/>
<path d="M200.56 125.15L230.714 107.743C231.608 107.225 232.337 107.593 232.337 108.57C232.297 109.115 232.129 109.643 231.847 110.111C231.565 110.58 231.177 110.975 230.714 111.267L200.567 128.673C199.666 129.199 198.937 128.823 198.937 127.854C198.976 127.308 199.143 126.778 199.425 126.308C199.707 125.838 200.096 125.441 200.56 125.15Z" fill="#27DEBF"/>
<path d="M197.322 137.605L233.937 116.413C234.839 115.894 235.568 116.262 235.568 117.239C235.527 117.785 235.358 118.314 235.075 118.782C234.791 119.251 234.402 119.646 233.937 119.936L197.322 141.129C196.42 141.647 195.691 141.279 195.691 140.302C195.732 139.756 195.901 139.228 196.184 138.759C196.468 138.29 196.857 137.895 197.322 137.605Z" fill="#455A64"/>
<path d="M234.914 133.496L245.168 127.576C245.709 127.268 246.145 127.411 246.145 127.899C246.104 128.199 245.995 128.485 245.826 128.735C245.656 128.985 245.431 129.193 245.168 129.342L234.914 135.261C234.381 135.569 233.937 135.427 233.937 134.946C233.979 134.646 234.088 134.359 234.257 134.108C234.427 133.856 234.651 133.647 234.914 133.496Z" fill="#37474F"/>
<path d="M183.687 159.557L198.749 150.865C199.643 150.346 200.372 150.767 200.372 151.804V162.141C200.341 162.705 200.178 163.253 199.896 163.743C199.614 164.232 199.221 164.648 198.749 164.958L183.687 173.65C182.793 174.168 182.064 173.748 182.064 172.711V162.374C182.095 161.81 182.258 161.261 182.54 160.772C182.822 160.283 183.214 159.866 183.687 159.557Z" fill="#27DEBF"/>
<path d="M186.091 160.999L196.345 155.079C196.886 154.771 197.322 154.914 197.322 155.395C197.282 155.696 197.173 155.983 197.004 156.235C196.834 156.486 196.609 156.695 196.345 156.845L186.091 162.764C185.55 163.072 185.114 162.93 185.114 162.449C185.154 162.148 185.262 161.861 185.432 161.609C185.601 161.358 185.827 161.149 186.091 160.999Z" fill="#FAFAFA"/>
<path d="M185.114 166.213V169.218C185.114 169.841 185.55 170.089 186.091 169.781L196.345 163.861C196.629 163.676 196.866 163.427 197.036 163.133C197.205 162.839 197.303 162.51 197.322 162.171V159.166C197.322 158.542 196.886 158.295 196.345 158.603L186.091 164.492C185.803 164.681 185.565 164.936 185.395 165.235C185.225 165.534 185.129 165.869 185.114 166.213Z" fill="#FAFAFA"/>
<path d="M208.102 145.463L223.127 136.771C224.028 136.253 224.757 136.674 224.757 137.71V148.048C224.726 148.612 224.563 149.162 224.28 149.651C223.996 150.141 223.601 150.557 223.127 150.865L208.102 159.557C207.201 160.075 206.479 159.654 206.479 158.618V148.28C206.509 147.716 206.671 147.167 206.953 146.677C207.235 146.188 207.629 145.772 208.102 145.463Z" fill="#27DEBF"/>
<path d="M210.506 146.906L220.76 140.986C221.294 140.678 221.73 140.821 221.73 141.301C221.69 141.601 221.582 141.888 221.414 142.139C221.246 142.39 221.022 142.6 220.76 142.751L210.506 148.671C209.965 148.979 209.529 148.836 209.529 148.348C209.57 148.049 209.679 147.763 209.849 147.512C210.018 147.262 210.243 147.055 210.506 146.906Z" fill="#FAFAFA"/>
<path d="M209.529 152.119V155.124C209.529 155.748 209.965 155.996 210.506 155.688L220.76 149.768C221.043 149.581 221.277 149.331 221.445 149.038C221.614 148.744 221.711 148.415 221.73 148.078V145.073C221.73 144.449 221.286 144.201 220.753 144.509L210.498 150.429C210.216 150.615 209.98 150.865 209.812 151.158C209.644 151.452 209.547 151.781 209.529 152.119Z" fill="#FAFAFA"/>
<path d="M232.517 131.37L247.542 122.671C248.436 122.152 249.165 122.573 249.165 123.61V133.954C249.134 134.518 248.971 135.067 248.689 135.556C248.407 136.045 248.014 136.462 247.542 136.771L232.517 145.463C231.616 145.982 230.887 145.561 230.887 144.524V134.187C230.918 133.622 231.082 133.073 231.365 132.583C231.648 132.094 232.043 131.678 232.517 131.37Z" fill="#27DEBF"/>
<path d="M234.914 132.812L245.168 126.93C245.709 126.615 246.145 126.757 246.145 127.246C246.106 127.546 245.997 127.832 245.828 128.083C245.658 128.333 245.432 128.54 245.168 128.688L234.914 134.608C234.381 134.923 233.937 134.781 233.937 134.292C233.972 133.986 234.079 133.693 234.249 133.436C234.418 133.179 234.646 132.965 234.914 132.812Z" fill="#FAFAFA"/>
<path d="M233.937 138.026V141.031C233.937 141.647 234.381 141.902 234.914 141.594L245.168 135.667C245.453 135.483 245.69 135.233 245.86 134.939C246.03 134.645 246.127 134.316 246.145 133.977V130.972C246.145 130.348 245.709 130.093 245.168 130.408L234.914 136.328C234.629 136.514 234.392 136.765 234.222 137.06C234.053 137.355 233.955 137.686 233.937 138.026Z" fill="#FAFAFA"/>
<path d="M185.317 183.273L245.942 148.273C247.745 147.236 249.195 147.972 249.195 149.918C249.117 151.011 248.781 152.07 248.216 153.009C247.65 153.947 246.871 154.739 245.942 155.32L185.317 190.32C183.521 191.357 182.064 190.621 182.064 188.675C182.144 187.582 182.481 186.524 183.046 185.586C183.611 184.647 184.389 183.855 185.317 183.273Z" fill="#E0E0E0"/>
<path d="M185.317 197.374L245.942 162.374C247.745 161.337 249.195 162.073 249.195 164.019C249.117 165.112 248.781 166.171 248.216 167.109C247.65 168.048 246.871 168.84 245.942 169.42L185.317 204.428C183.521 205.465 182.064 204.729 182.064 202.776C182.144 201.683 182.481 200.625 183.046 199.687C183.611 198.748 184.389 197.956 185.317 197.374Z" fill="#E0E0E0"/>
<path d="M205.052 203.602L226.207 191.387C227.109 190.868 227.837 191.289 227.837 192.326V199.14C227.807 199.704 227.643 200.254 227.36 200.744C227.076 201.233 226.681 201.649 226.207 201.957L205.052 214.172C204.15 214.69 203.422 214.27 203.422 213.233V206.419C203.452 205.854 203.616 205.305 203.899 204.815C204.183 204.326 204.578 203.91 205.052 203.602Z" fill="#27DEBF"/>
<path d="M186.639 184.318C186.199 184.61 185.834 185.002 185.573 185.461C185.312 185.92 185.162 186.434 185.137 186.962C185.137 187.931 185.82 188.329 186.639 187.841C187.079 187.549 187.444 187.157 187.705 186.698C187.966 186.238 188.116 185.724 188.141 185.197C188.164 184.227 187.48 183.829 186.639 184.318Z" fill="#FAFAFA"/>
<path d="M191.477 181.523C191.036 181.814 190.67 182.206 190.409 182.665C190.148 183.125 189.999 183.639 189.975 184.167C189.975 185.136 190.651 185.535 191.477 185.046C191.917 184.754 192.282 184.362 192.543 183.903C192.804 183.444 192.954 182.93 192.979 182.402C193.002 181.433 192.318 181.02 191.477 181.523Z" fill="#FAFAFA"/>
<path d="M196.308 178.766C195.867 179.058 195.502 179.45 195.241 179.909C194.98 180.368 194.831 180.883 194.805 181.41C194.805 182.379 195.489 182.778 196.308 182.289C196.748 181.997 197.113 181.605 197.374 181.146C197.635 180.687 197.784 180.173 197.81 179.645C197.833 178.638 197.149 178.24 196.308 178.766Z" fill="#FAFAFA"/>
<path d="M201.146 175.934C200.705 176.226 200.34 176.617 200.079 177.077C199.817 177.536 199.668 178.05 199.643 178.578C199.643 179.547 200.327 179.945 201.146 179.457C201.586 179.165 201.951 178.773 202.212 178.314C202.473 177.855 202.622 177.34 202.648 176.813C202.671 175.844 201.987 175.445 201.146 175.934Z" fill="#FAFAFA"/>
<path d="M205.976 173.139C205.536 173.431 205.171 173.823 204.91 174.282C204.649 174.742 204.499 175.256 204.474 175.784C204.474 176.753 205.157 177.151 205.976 176.663C206.416 176.37 206.781 175.979 207.042 175.519C207.303 175.06 207.453 174.546 207.479 174.018C207.501 173.049 206.817 172.651 205.976 173.139Z" fill="#FAFAFA"/>
<path d="M210.807 170.344C210.366 170.637 210.001 171.028 209.74 171.488C209.479 171.947 209.33 172.461 209.304 172.989C209.304 173.958 209.988 174.356 210.807 173.868C211.247 173.576 211.613 173.185 211.874 172.725C212.135 172.266 212.284 171.751 212.309 171.223C212.332 170.254 211.655 169.856 210.807 170.344Z" fill="#FAFAFA"/>
<path d="M215.645 167.55C215.204 167.842 214.839 168.234 214.578 168.693C214.317 169.152 214.168 169.667 214.142 170.194C214.142 171.163 214.826 171.562 215.645 171.073C216.085 170.781 216.45 170.389 216.711 169.93C216.972 169.471 217.121 168.956 217.147 168.429C217.192 167.497 216.486 167.062 215.645 167.55Z" fill="#FAFAFA"/>
<path d="M186.639 198.426C186.2 198.719 185.835 199.111 185.574 199.57C185.314 200.029 185.164 200.543 185.137 201.07C185.137 202.047 185.82 202.438 186.639 201.949C187.079 201.659 187.444 201.268 187.705 200.81C187.966 200.352 188.116 199.839 188.141 199.312C188.164 198.336 187.48 197.945 186.639 198.426Z" fill="#FAFAFA"/>
<path d="M191.477 195.631C191.037 195.923 190.671 196.315 190.41 196.774C190.149 197.234 190 197.748 189.975 198.276C189.975 199.252 190.651 199.643 191.477 199.155C191.917 198.864 192.282 198.474 192.543 198.016C192.804 197.558 192.954 197.044 192.979 196.518C193.002 195.541 192.318 195.151 191.477 195.631Z" fill="#FAFAFA"/>
<path d="M196.308 192.837C195.868 193.13 195.504 193.522 195.243 193.981C194.982 194.44 194.832 194.954 194.805 195.481C194.805 196.458 195.489 196.848 196.308 196.36C196.747 196.069 197.113 195.679 197.374 195.221C197.635 194.763 197.784 194.25 197.81 193.723C197.833 192.747 197.149 192.348 196.308 192.837Z" fill="#FAFAFA"/>
<path d="M201.146 190.035C200.706 190.327 200.34 190.719 200.079 191.178C199.818 191.637 199.669 192.151 199.643 192.679C199.643 193.656 200.327 194.046 201.146 193.558C201.585 193.267 201.951 192.877 202.212 192.419C202.473 191.961 202.622 191.448 202.648 190.921C202.671 189.952 201.987 189.554 201.146 190.035Z" fill="#FAFAFA"/>
<path d="M205.976 187.248C205.536 187.54 205.171 187.931 204.91 188.391C204.649 188.85 204.499 189.364 204.474 189.892C204.474 190.868 205.157 191.259 205.976 190.771C206.416 190.48 206.781 190.09 207.042 189.632C207.303 189.174 207.453 188.661 207.479 188.134C207.501 187.157 206.817 186.759 205.976 187.248Z" fill="#FAFAFA"/>
<path d="M210.807 184.453C210.366 184.745 210.001 185.137 209.74 185.596C209.479 186.055 209.33 186.57 209.304 187.097C209.304 188.074 209.988 188.465 210.807 187.976C211.248 187.686 211.615 187.294 211.876 186.835C212.137 186.375 212.286 185.86 212.309 185.332C212.332 184.363 211.655 183.965 210.807 184.453Z" fill="#FAFAFA"/>
<path d="M215.645 181.658C215.204 181.951 214.839 182.342 214.578 182.801C214.317 183.261 214.168 183.775 214.142 184.303C214.142 185.279 214.826 185.67 215.645 185.182C216.085 184.89 216.45 184.498 216.711 184.039C216.973 183.579 217.122 183.065 217.147 182.537C217.192 181.568 216.486 181.17 215.645 181.658Z" fill="#FAFAFA"/>
<path d="M283.444 213.421C280.848 213.439 278.294 212.765 276.045 211.468C270.628 208.335 267.525 201.799 267.525 193.513C267.525 178.954 276.781 162.209 288.56 155.387C294.923 151.714 301.241 151.316 306.357 154.268C311.766 157.393 314.876 163.936 314.876 172.215C314.876 186.774 305.621 203.527 293.804 210.348C290.679 212.26 287.107 213.32 283.444 213.421ZM298.965 162.802C297.136 162.931 295.368 163.512 293.819 164.492C285.255 169.413 278.043 182.718 278.043 193.513C278.043 197.885 279.267 201.206 281.318 202.385C283.655 203.737 286.908 202.265 288.628 201.266C297.215 196.315 304.457 183.011 304.457 172.215C304.457 167.843 303.232 164.53 301.181 163.343C300.505 162.965 299.739 162.778 298.965 162.802Z" fill="#455A64"/>
<path d="M306.297 174.544C306.297 166.363 301.144 163.343 301.144 163.343C303.194 164.53 304.419 167.85 304.419 172.215C304.419 183.011 297.177 196.315 288.59 201.266C286.87 202.265 283.625 203.737 281.281 202.385C281.281 202.385 285.63 205.09 291.64 201.807C300.34 197.066 306.297 185.339 306.297 174.544Z" fill="#37474F"/>
<path d="M298.033 72.3072C297.981 70.9046 297.387 69.5769 296.377 68.603C295.366 67.6292 294.017 67.0851 292.613 67.0851C291.21 67.0851 289.861 67.6292 288.85 68.603C287.839 69.5769 287.245 70.9046 287.193 72.3072V158.482C287.232 158.965 287.399 159.429 287.678 159.826C287.957 160.222 288.337 160.536 288.778 160.736C289.966 161.336 291.278 161.649 292.609 161.649C293.94 161.649 295.253 161.336 296.441 160.736C296.884 160.538 297.266 160.224 297.546 159.828C297.826 159.431 297.995 158.966 298.033 158.482V72.3223V72.3072Z" fill="#37474F"/>
<path d="M293.706 91.5691C293.647 90.4825 293.332 89.4251 292.788 88.4828C292.244 87.5404 291.485 86.7396 290.574 86.1451C290.252 85.9094 289.871 85.7665 289.474 85.732C289.077 85.6976 288.677 85.7729 288.32 85.9498L274.963 93.65L274.64 93.8379C274.591 93.8581 274.545 93.886 274.504 93.9205C274.277 94.0743 274.063 94.2477 273.866 94.4389C273.113 95.1898 272.654 96.1866 272.575 97.2474C272.496 98.3081 272.801 99.362 273.434 100.217C274.067 101.071 274.987 101.67 276.024 101.903C277.062 102.136 278.149 101.988 279.087 101.486L279.342 101.335L292.797 93.5899C293.114 93.3636 293.365 93.0573 293.525 92.7023C293.684 92.3473 293.747 91.9562 293.706 91.5691Z" fill="#455A64"/>
<path d="M293.706 113.145C293.646 112.06 293.331 111.004 292.786 110.063C292.242 109.122 291.484 108.322 290.574 107.728C290.253 107.49 289.873 107.345 289.475 107.309C289.078 107.273 288.678 107.348 288.32 107.526L272.649 116.541L272.326 116.728C272.277 116.75 272.232 116.777 272.191 116.811C271.962 116.963 271.748 117.136 271.552 117.329C271.063 117.817 270.694 118.411 270.474 119.066C270.254 119.72 270.19 120.417 270.286 121.101C270.382 121.784 270.636 122.436 271.028 123.005C271.42 123.573 271.939 124.043 272.544 124.376C273.196 124.722 273.924 124.903 274.662 124.902C275.399 124.905 276.124 124.725 276.773 124.376C276.863 124.331 276.946 124.271 277.029 124.226L292.805 115.211C293.127 114.98 293.381 114.666 293.54 114.302C293.699 113.938 293.756 113.539 293.706 113.145Z" fill="#455A64"/>
</g>
<defs>
<clipPath id="clip0_9_1345">
<rect width="348.742" height="302" fill="white"/>
</clipPath>
</defs>
</svg>
